<svg width="24" height="24" viewBox="0 0 24 24" fill="none" xmlns="http://www.w3.org/2000/svg">
<g filter="url(#filter0_i_8_13)">
<circle cx="12" cy="8" r="8" fill="#FF0028"/>
<path fill-rule="evenodd" clip-rule="evenodd" d="M4.51024 14.626C4.14316 14.916 3.79225 15.2278 3.46 15.56C1.20956 17.8104 0 20.8174 0 24L12 24L24 24C24 20.8174 22.7904 17.8104 20.54 15.56C20.2078 15.2278 19.8568 14.916 19.4898 14.626C19.3549 14.7784 19.2153 14.9268 19.0711 15.0711C18.1425 15.9997 17.0401 16.7363 15.8268 17.2388C14.6136 17.7414 13.3132 18 12 18C10.6868 18 9.38642 17.7414 8.17317 17.2388C6.95991 16.7363 5.85752 15.9997 4.92893 15.0711C4.78468 14.9268 4.64506 14.7784 4.51024 14.626Z" fill="#FF0028"/>
</g>
<defs>
<filter id="filter0_i_8_13" x="0" y="0" width="24" height="28" filterUnits="userSpaceOnUse" color-interpolation-filters="sRGB">
<feFlood flood-opacity="0" result="BackgroundImageFix"/>
<feBlend mode="normal" in="SourceGraphic" in2="BackgroundImageFix" result="shape"/>
<feColorMatrix in="SourceAlpha" type="matrix" values="0 0 0 0 0 0 0 0 0 0 0 0 0 0 0 0 0 0 127 0" result="hardAlpha"/>
<feOffset dy="4"/>
<feGaussianBlur stdDeviation="2"/>
<feComposite in2="hardAlpha" operator="arithmetic" k2="-1" k3="1"/>
<feColorMatrix type="matrix" values="0 0 0 0 0 0 0 0 0 0 0 0 0 0 0 0 0 0 0.25 0"/>
<feBlend mode="normal" in2="shape" result="effect1_innerShadow_8_13"/>
</filter>
</defs>
</svg>